<svg width="540" height="543" viewBox="0 0 540 543" fill="none" xmlns="http://www.w3.org/2000/svg">
<path d="M178.677 407.25C171.995 378.448 141.845 354.895 129.47 339.375C108.279 312.752 94.9984 280.651 91.158 246.77C87.3177 212.889 93.0736 178.606 107.763 147.871C122.452 117.135 145.477 91.1981 174.185 73.0463C202.893 54.8945 236.117 45.2668 270.029 45.2722C303.941 45.2777 337.161 54.9161 365.864 73.0771C394.566 91.2382 417.583 117.183 432.262 147.923C446.942 178.663 452.687 212.948 448.836 246.827C444.984 280.707 431.694 312.804 410.495 339.42C398.12 354.918 368.015 378.471 361.332 407.25H178.655H178.677ZM360.005 452.5V475.125C360.005 487.126 355.264 498.635 346.824 507.121C338.385 515.607 326.939 520.375 315.005 520.375H225.005C213.07 520.375 201.624 515.607 193.185 507.121C184.746 498.635 180.005 487.126 180.005 475.125V452.5H360.005ZM292.505 226.363V135.75L191.255 271.613H247.505V362.113L348.755 226.363H292.505V226.363Z" fill="black" fill-opacity="0.05"/>
</svg>
